<svg width="380" height="380" viewBox="0 0 380 380" fill="none" xmlns="http://www.w3.org/2000/svg">
<rect x="49" y="92" width="44.1687" height="196.211" rx="12" fill="#3A5D81"/>
<path d="M286.831 249.247C286.831 242.62 292.204 237.247 298.831 237.247H319C325.627 237.247 331 242.62 331 249.247V276.211C331 282.838 325.627 288.211 319 288.211H290.831C288.622 288.211 286.831 286.42 286.831 284.211V249.247Z" fill="#3A5D81"/>
<path d="M105.909 127.783C105.909 121.156 111.282 115.783 117.909 115.783H139.777C146.404 115.783 151.777 121.156 151.777 127.783V193.325C151.777 195.534 149.986 197.325 147.777 197.325H109.909C107.7 197.325 105.909 195.534 105.909 193.325V127.783Z" fill="#3A5D81"/>
<path d="M319 140.416C325.627 140.416 331 145.788 331 152.416L331 193.325C331 195.534 329.209 197.325 327 197.325L174.464 197.325C172.255 197.325 170.464 195.534 170.464 193.325L170.464 144.416C170.464 142.207 172.255 140.416 174.464 140.416L319 140.416Z" fill="#3A5D81"/>
<path d="M84.7832 268.675C78.1558 268.675 72.7832 263.302 72.7832 256.675L72.7832 219.163C72.7832 216.953 74.5741 215.163 76.7832 215.163L327 215.163C329.209 215.163 331 216.953 331 219.163L331 264.675C331 266.884 329.209 268.675 327 268.675L84.7832 268.675Z" fill="#3A5D81"/>
</svg>
