<svg width="380" height="380" viewBox="0 0 380 380" fill="none" xmlns="http://www.w3.org/2000/svg">
<path d="M202.602 327.263V289.516V281.706C202.602 277.801 208.676 274.764 211.713 272.595C214.751 270.425 236.878 267.822 239.915 266.52C242.953 265.219 304.563 233.546 309.769 213.154C314.976 192.762 314.976 181.481 314.976 175.84C314.976 170.2 307.718 149.374 304.563 145.035C301.092 140.263 274.192 128.114 271.588 125.945C268.108 123.045 269.419 94.2717 268.117 87.7635C266.816 81.2554 232.106 47.847 222.126 44.3759C212.147 40.9049 197.396 43.5082 191.321 42.2066C185.247 40.905 155.743 46.1115 148.368 47.847C140.992 49.5825 139.69 50.4502 133.616 53.4874C127.542 56.5245 113.657 68.2391 110.186 73.4457C106.715 78.6522 103.244 90.3668 104.112 97.7427C104.98 105.119 101.075 115.098 96.3024 122.04C91.5298 128.982 75.9103 138.093 69.4023 147.205C62.8944 156.316 66.3652 165.861 65.4975 174.105C64.6297 182.349 64.3475 212.319 69.4023 220.096C75.0427 228.773 94.8628 246.993 103.679 252.203C113.224 257.843 155.892 273.974 160.95 272.595C165.723 271.293 170.304 273.584 172.665 274.764C174.4 275.632 175.557 282.14 175.702 285.611C175.557 300.363 175.355 330.561 175.702 333.337C176.049 336.114 179.028 336.808 180.475 336.808C182.933 336.953 188.458 337.155 190.888 336.808C193.925 336.374 199.131 335.507 201.301 333.337C203.036 331.602 202.892 328.565 202.602 327.263Z" fill="#3A5D81"/>
<path d="M178.739 196.666C191.582 204.303 205.929 205.778 207.375 204.042C209.545 201.439 210.152 198.055 210.846 191.46C211.714 183.216 221.259 184.084 227.334 188.857C233.408 193.629 228.201 205.344 227.334 209.249C226.466 213.154 221.259 222.699 209.979 223.133C198.698 223.567 175.269 217.059 163.988 214.022C152.707 210.984 147.066 202.741 144.897 196.666C142.728 190.592 145.253 187.597 151.839 184.084C158.347 180.613 162.686 187.121 178.739 196.666Z" fill="#F8F6F3"/>
</svg>
