<svg width="380" height="380" viewBox="0 0 380 380" fill="none" xmlns="http://www.w3.org/2000/svg">
<g filter="url(#filter0_d_2015_984)">
<path d="M240.805 308.183V238.909C240.805 233.829 240.805 222.283 239.419 219.05C237.782 215.23 231.106 213.97 227.874 211.199C224.566 208.363 219.561 204.271 217.713 199.191C216.235 195.127 215.558 190.417 215.404 188.569C214.635 161.321 213.557 105.348 215.404 99.4363C217.712 92.047 216.955 93.7762 220.946 84.1959C225.564 73.112 234.339 67.5701 238.957 64.3373C243.773 60.9666 251.889 59.719 256.045 59.719C260.201 59.719 264.113 62.3163 266.667 65.7228C269.438 69.4174 273.533 78.0327 274.056 83.2723C274.518 87.8906 275.134 97.8969 274.98 102.669C275.75 175.792 276.827 323.516 274.98 329.427C274.114 332.198 273.595 334.507 269.438 334.507H251.427C248.04 333.891 246.581 332.934 243.576 329.427C240.805 326.194 240.805 314.033 240.805 308.183Z" fill="#FEECD5"/>
</g>
<path d="M139.201 320.191V226.439V199.653C139.201 191.525 134.276 186.414 131.813 184.875C126.424 181.18 114.263 172.405 108.721 166.863C103.179 161.321 103.641 148.544 104.564 142.848V116.524C104.564 115.6 105.026 66.1847 105.488 56.9481C105.95 47.7116 114.263 48.6351 117.034 48.1733C119.805 47.7114 122.114 48.6351 125.347 51.4061C128.58 54.177 124.423 121.142 124.885 127.146C125.347 133.15 129.503 131.303 139.201 132.226C148.9 133.15 147.514 124.375 147.514 121.142C147.514 118.556 147.977 77.4225 148.438 57.4099C148.438 53.0995 148.993 46.6031 149.362 45.8642C149.732 45.1252 151.979 43.8629 154.442 44.0169C157.213 44.0169 161.371 43.864 162.293 44.4787C163.679 45.4023 164.294 47.5576 164.14 49.097V57.4099C164.294 75.5752 164.51 113.384 164.14 119.295C163.771 125.206 166.449 127.916 167.835 128.532H180.304C183.999 128.532 184.923 121.142 184.923 117.448C184.769 97.2811 184.553 56.0244 184.923 52.3298C185.292 48.6352 188.155 47.0957 189.541 47.2496C191.85 46.7878 196.563 46.6655 198.316 47.2496C199.701 47.7114 201.24 57.256 201.087 61.5664V149.776C201.087 159.382 197.392 164.246 195.545 165.478C190.311 171.02 178.087 182.473 171.068 183.951C164.048 185.429 163.832 194.111 164.602 198.268V328.042C164.602 334.323 158.136 335.277 154.904 334.969C153.056 334.661 148.253 334.23 143.82 334.969C139.386 335.708 138.893 325.425 139.201 320.191Z" fill="#FEECD5"/>
<defs>
<filter id="filter0_d_2015_984" x="210.384" y="59.719" width="69.6157" height="282.788" filterUnits="userSpaceOnUse" color-interpolation-filters="sRGB">
<feFlood flood-opacity="0" result="BackgroundImageFix"/>
<feColorMatrix in="SourceAlpha" type="matrix" values="0 0 0 0 0 0 0 0 0 0 0 0 0 0 0 0 0 0 127 0" result="hardAlpha"/>
<feOffset dy="4"/>
<feGaussianBlur stdDeviation="2"/>
<feComposite in2="hardAlpha" operator="out"/>
<feColorMatrix type="matrix" values="0 0 0 0 0 0 0 0 0 0 0 0 0 0 0 0 0 0 0.25 0"/>
<feBlend mode="normal" in2="BackgroundImageFix" result="effect1_dropShadow_2015_984"/>
<feBlend mode="normal" in="SourceGraphic" in2="effect1_dropShadow_2015_984" result="shape"/>
</filter>
</defs>
</svg>
